<svg id="Layer_1" data-name="Layer 1" xmlns="http://www.w3.org/2000/svg" viewBox="0 0 886.73 217"><defs><style>.cls-1{fill:#333;}.cls-2{fill:#faadaa;opacity:0.4;isolation:isolate;}.cls-3{fill:#90caf9;}</style></defs><title>icon</title><rect class="cls-1" width="333.54" height="217" rx="34" ry="34"/><path class="cls-2" d="M718.31,613.22A11.26,11.26,0,0,1,714,597.87l0,0a11.45,11.45,0,0,1,4.26-4.2,11.48,11.48,0,0,0,5.49-6.94,11.26,11.26,0,0,0-1.17-8.69l-3.85-6.72a11.75,11.75,0,0,0-7.13-5.35,12.06,12.06,0,0,0-8.92,1.15,12.07,12.07,0,0,1-8.94,1.14,11.76,11.76,0,0,1-7.16-5.34,11.53,11.53,0,0,1-1.58-5.75,11.28,11.28,0,0,0-3.42-8.11,11.91,11.91,0,0,0-8.32-3.37h-7.73a11.64,11.64,0,0,0-11.8,11.43,11.36,11.36,0,0,1-5.85,10,12,12,0,0,1-11.77,0,12,12,0,0,0-9.06-1.22,11.69,11.69,0,0,0-7.21,5.48l-3.68,6.45a11.34,11.34,0,0,0,4.06,15.49l.26.14A11.31,11.31,0,0,1,625,608.76a3.07,3.07,0,0,1-.17.31,10.92,10.92,0,0,1-4.27,4.15,11.46,11.46,0,0,0-5.48,6.95,11.18,11.18,0,0,0,1.17,8.69l3.69,6.55a12,12,0,0,0,16.1,4.16,12,12,0,0,1,16,4.21,11.14,11.14,0,0,1,1.58,5.73,11.35,11.35,0,0,0,3.49,8.16,12,12,0,0,0,8.41,3.33h7.73a11.65,11.65,0,0,0,11.79-11.49,11.24,11.24,0,0,1,3.38-8.18,12,12,0,0,1,14.25-1.86,12,12,0,0,0,16.05-4.21l3.9-6.56a11.26,11.26,0,0,0-4.16-15.38l-.16-.1Z" transform="translate(-499 -472)"/><path class="cls-2" d="M587.12,553.29v-1.77a12.49,12.49,0,0,0,.39-1.63l1.06-6.26a12.26,12.26,0,0,1,10.07-10l6.23-1.06a13.15,13.15,0,0,0,11-13v-5.13a13.09,13.09,0,0,0-9.66-12.64h-68.3a13.13,13.13,0,0,0-9.67,12.64v5.13a13.2,13.2,0,0,0,10.95,13l6.23,1.06a12.26,12.26,0,0,1,10.07,10l1,6.26a13.53,13.53,0,0,0,.4,1.61v63.79a14.36,14.36,0,0,0-.4,1.63l-1,6.26a12.28,12.28,0,0,1-10.07,10l-6.23,1a13.15,13.15,0,0,0-10.95,13v5.12A13.09,13.09,0,0,0,537.85,665h68.3a13.13,13.13,0,0,0,9.67-12.64v-5.12a13.2,13.2,0,0,0-11-13l-6.23-1a12.28,12.28,0,0,1-10.07-10l-1.06-6.26a12.19,12.19,0,0,0-.39-1.61v-62Z" transform="translate(-499 -472)"/><path class="cls-2" d="M725.39,609.41a11.26,11.26,0,0,1-4.27-15.35v0a11.48,11.48,0,0,1,4.27-4.2,11.47,11.47,0,0,0,5.48-6.94,11.17,11.17,0,0,0-1.17-8.69l-3.84-6.72a11.71,11.71,0,0,0-7.13-5.35,12.06,12.06,0,0,0-8.92,1.15,12.09,12.09,0,0,1-9,1.14,11.78,11.78,0,0,1-7.16-5.34,11.52,11.52,0,0,1-1.57-5.75,11.32,11.32,0,0,0-3.42-8.11,11.88,11.88,0,0,0-8.32-3.37h-7.74a11.64,11.64,0,0,0-11.79,11.43,11.37,11.37,0,0,1-5.85,10,12,12,0,0,1-11.78,0,11.93,11.93,0,0,0-9-1.22,11.67,11.67,0,0,0-7.21,5.47l-3.68,6.46a11.32,11.32,0,0,0,4.06,15.49l.26.14A11.32,11.32,0,0,1,632.05,605l-.17.31a10.92,10.92,0,0,1-4.27,4.15,11.46,11.46,0,0,0-5.48,7,11.18,11.18,0,0,0,1.17,8.69L627,631.6a12,12,0,0,0,16.1,4.16,12,12,0,0,1,16,4.2,11.27,11.27,0,0,1,1.58,5.74,11.36,11.36,0,0,0,3.48,8.16,12,12,0,0,0,8.41,3.32h7.74a11.64,11.64,0,0,0,11.79-11.48,11.28,11.28,0,0,1,3.38-8.19,12,12,0,0,1,14.25-1.85,12,12,0,0,0,16.05-4.21l3.89-6.56a11.25,11.25,0,0,0-4.15-15.38,1,1,0,0,0-.17-.1Z" transform="translate(-499 -472)"/><path class="cls-2" d="M796.37,543.53h-68.3a13.13,13.13,0,0,0-9.67,12.64v5.12a13.2,13.2,0,0,0,11,13l6.22,1a12.31,12.31,0,0,1,10.08,10l1.05,6.26a14,14,0,0,0,.4,1.61v62a7.91,7.91,0,0,0,7.88,7.88h14.46a7.91,7.91,0,0,0,7.89-7.88v-62a12.49,12.49,0,0,0,.39-1.63l1-6.26a12.31,12.31,0,0,1,10.08-10l6.22-1a13.16,13.16,0,0,0,11-13v-5.12A13.09,13.09,0,0,0,796.37,543.53Z" transform="translate(-499 -472)"/><path class="cls-2" d="M594.21,549.48v-1.77a12.49,12.49,0,0,0,.39-1.63l1-6.26a12.31,12.31,0,0,1,10.08-10l6.22-1a13.16,13.16,0,0,0,11-13v-5.12A13.1,13.1,0,0,0,613.25,498H545a13.13,13.13,0,0,0-9.67,12.64v5.12a13.2,13.2,0,0,0,11,13l6.22,1a12.31,12.31,0,0,1,10.08,10l1.05,6.26a14,14,0,0,0,.4,1.61v63.79a14.36,14.36,0,0,0-.4,1.63l-1.05,6.26a12.28,12.28,0,0,1-10.08,10l-6.22,1.06a13.15,13.15,0,0,0-11,13v5.13a13.08,13.08,0,0,0,9.65,12.64h68.31a13.13,13.13,0,0,0,9.67-12.64v-5.13a13.2,13.2,0,0,0-11-13l-6.22-1.06a12.28,12.28,0,0,1-10.08-10l-1-6.26a11.82,11.82,0,0,0-.39-1.61v-62Z" transform="translate(-499 -472)"/><path class="cls-2" d="M803.46,539.72H735.15a13.12,13.12,0,0,0-9.66,12.64v5.12a13.2,13.2,0,0,0,11,13l6.22,1a12.31,12.31,0,0,1,10.08,10l1,6.26c.1.55.24,1.08.39,1.61v62a7.91,7.91,0,0,0,7.89,7.88h14.46a7.91,7.91,0,0,0,7.89-7.88v-62a12.49,12.49,0,0,0,.39-1.63l1.05-6.26a12.31,12.31,0,0,1,10.08-10l6.22-1a13.16,13.16,0,0,0,11-13v-5.12A13.07,13.07,0,0,0,803.46,539.72Z" transform="translate(-499 -472)"/><path class="cls-1" d="M649.3,603.33a20.12,20.12,0,1,0,20.13-20.13,20.12,20.12,0,0,0-20.13,20.13Z" transform="translate(-499 -472)"/><path class="cls-3" d="M952.82,561.3l9,11.33,5.17,6.25q15,18.55,15,39.26a51.76,51.76,0,0,1-13.28,35.25q-18.16,20.8-47.56,20.8-22.75,0-37.3-14t-14.55-35.89q0-26.76,22.65-44.63,12-9.46,22.17-9.47a12.31,12.31,0,0,1,8.6,3,10.12,10.12,0,0,1,3.32,7.82q0,6.44-7.62,11.13L910.64,597a34,34,0,0,0-11.23,11.71,28.82,28.82,0,0,0-4.5,14.85q0,11.61,7.87,19.19t20,7.57q13.38,0,23.24-10a32.54,32.54,0,0,0,9.86-23.59,31,31,0,0,0-4-15.62q-4-7-17.29-21.78-9.27-10.26-13.28-18H894.91q-13.47,0-13.47-9.28,0-6.74,4.73-10.4T899.5,538h16.7q1.95-19.34,17.68-32t37.69-12.65q16.51,0,26.91,9.08t10.4,23.54q0,19.24-16.5,29.49-9.37,5.87-29.79,5.86ZM941.11,538h23.43q19.83,0,19.83-11.52a8.34,8.34,0,0,0-4.06-7.23q-4-2.73-10.79-2.73A31.07,31.07,0,0,0,950.33,523Q941.69,529.56,941.11,538Z" transform="translate(-499 -472)"/><path class="cls-3" d="M1024.11,599.39q0,7.32,11,7.32h29q12.31,0,12.31,8.69a11,11,0,0,1-4.35,9.28Q1067.76,628,1060,628h-27.63q-15.43,0-23.49-7.62t-8.06-22.26a46,46,0,0,1,12.75-32.52q12.74-13.68,30.32-13.67,12.79,0,20.56,6.69t7.76,17.62q0,13.18-10.74,19.53-6,3.62-17.78,3.62Zm4.69-17.78h10.74q10.45,0,10.16-4.59c-.2-3.45-2.44-5.17-6.74-5.17Q1034,571.85,1028.8,581.61Z" transform="translate(-499 -472)"/><path class="cls-3" d="M1104.58,574.68l-3.32,8.2q-4.48,10.93-11.72,10.94a10.52,10.52,0,0,1-7.32-2.64,8.43,8.43,0,0,1-2.93-6.54c0-1.5.71-4,2.15-7.62l11-27.24q4-9.87,11.33-9.87t8.89,6.84l.78,3c.39,1.56,1,2.54,1.76,2.93s2.7.58,5.76.58h22.85q12.79,0,12.79,9,0,12.4-16.21,12.4l-1.07,1q-15.52,14.83-15.53,23t9,8.1h12.31q12.41,0,12.4,8.59a11.13,11.13,0,0,1-4.34,9.38Q1148.82,628,1141,628h-19.14a20.73,20.73,0,0,1-16-6.74q-6.2-6.74-6.2-17.48A28.71,28.71,0,0,1,1103,590.5q3.32-6.45,11.72-15.82Z" transform="translate(-499 -472)"/><path class="cls-3" d="M1186.42,593.63l22.65-30.86,1.76-2.64q5.67-8.21,12.7-8.2a10.29,10.29,0,0,1,7.52,2.88,9.91,9.91,0,0,1,2.93,7.37q0,4.89-5.86,12.5L1192,621.46q-6,7.9-14.25,7.91a13.42,13.42,0,0,1-10.94-4.84q-4-4.83-4-13.23c0-1.17,0-2.11.09-2.83l3.52-39q.67-7.9,4.25-12.06a12,12,0,0,1,9.62-4.15q9.27,0,9.27,9.38a46.88,46.88,0,0,1-.39,4.69Z" transform="translate(-499 -472)"/><path class="cls-3" d="M1252.34,599.39q0,7.32,11,7.32h29q12.3,0,12.3,8.69a11,11,0,0,1-4.35,9.28c-2.89,2.21-6.95,3.32-12.15,3.32h-27.64q-15.43,0-23.49-7.62t-8-22.26a46,46,0,0,1,12.74-32.52q12.75-13.68,30.32-13.67,12.8,0,20.56,6.69t7.76,17.62q0,13.18-10.74,19.53-6,3.62-17.77,3.62Zm4.68-17.78h10.75q10.44,0,10.15-4.59-.29-5.17-6.74-5.17Q1262.2,571.85,1257,581.61Z" transform="translate(-499 -472)"/><path class="cls-3" d="M1332.8,574.68l-3.32,8.2q-4.49,10.93-11.71,10.94a10.54,10.54,0,0,1-7.33-2.64,8.43,8.43,0,0,1-2.93-6.54q0-2.25,2.15-7.62l11-27.24q4-9.87,11.32-9.87t8.89,6.84l.78,3c.39,1.56,1,2.54,1.76,2.93s2.7.58,5.76.58h22.85q12.8,0,12.8,9,0,12.4-16.22,12.4l-1.07,1q-15.52,14.83-15.53,23t9,8.1h12.3q12.4,0,12.4,8.59a11.1,11.1,0,0,1-4.34,9.38Q1377,628,1369.23,628h-19.14a20.74,20.74,0,0,1-16-6.74q-6.19-6.74-6.2-17.48a28.71,28.71,0,0,1,3.32-13.28q3.33-6.45,11.72-15.82Z" transform="translate(-499 -472)"/></svg>