<?xml version="1.0" encoding="utf-8"?>
<!-- Generator: Adobe Illustrator 22.1.0, SVG Export Plug-In . SVG Version: 6.00 Build 0)  -->
<svg version="1.1" id="Layer_1" xmlns="http://www.w3.org/2000/svg" xmlns:xlink="http://www.w3.org/1999/xlink" x="0px" y="0px"
	 viewBox="0 0 238.6 238.6" style="enable-background:new 0 0 238.6 238.6;" xml:space="preserve">
<g>
	<g>
		<path d="M119.3,0C185,0,238.6,53.6,238.6,119.3S185,238.6,119.3,238.6S0,185,0,119.3C0,53.6,53.6,0,119.3,0 M119.3,4.8
			C56.2,4.8,4.8,56.2,4.8,119.3s51.4,114.5,114.5,114.5s114.5-51.5,114.5-114.5C233.8,56.2,182.4,4.8,119.3,4.8"/>
		<path d="M77.4,170.2c-7.5-6.2-13.6-13.9-17.8-22.8c-4-8.5-6.3-18-6.3-28c0-36.3,29.6-65.9,65.9-65.9c36.3,0,65.9,29.6,65.9,65.9
			c0,10-2.3,19.5-6.3,28c-4.2,8.8-10.3,16.6-17.7,22.8l-1.5-1.8c7.2-5.9,13.1-13.5,17.1-22c3.9-8.2,6-17.4,6-27
			c0-35-28.5-63.6-63.6-63.6c-35,0-63.5,28.6-63.5,63.6c0,9.7,2.2,18.8,6,27c4,8.5,9.9,16,17.1,22L77.4,170.2z"/>
		<polygon points="17.1,159.1 12.6,147.1 15.1,146.2 35.7,149.3 32.6,140.9 35,140 39.1,151.1 36.7,151.9 16.1,148.8 19.6,158.3 		
			"/>
		<polygon points="25,175.6 23.8,173.2 33.5,168.2 30.4,162.2 20.7,167.2 19.4,164.8 40.2,154.1 41.4,156.5 32.7,161 35.7,167 
			44.5,162.5 45.7,164.9 		"/>
		<polygon points="34.8,188.7 27.5,178.4 46.9,166.4 53.9,176.1 51.8,177.5 46.4,170 40.4,173.8 45.3,180.6 43.1,182 38.2,175.1 
			31.3,179.4 37,187.4 		"/>
		<polygon points="51.3,204.9 48.9,202.8 63.2,185.2 65.7,187.3 		"/>
		<path d="M62.4,212.6l2.9-6.2l-3.6-2.6l-5.3,5.1L54,207l16.8-16.6l3.4,2.1l-8.9,21.7L62.4,212.6z M66.7,203.4l3.5-8l-0.3-0.3
			l-6,6.2L66.7,203.4z"/>
		<polygon points="79.2,220.8 76.2,219.3 78,203.2 71.4,216.8 68.3,215.4 78.8,194.6 81.6,195.8 80.3,211.2 87.1,198.5 89.7,199.6 
					"/>
		<path d="M94.9,225.4l-2-0.6l0.2-1.8c-0.4,0.4-1.1,0.6-1.8,0.8c-0.8,0.1-1.5,0.1-2.3-0.2c-1.6-0.5-2.8-1.8-3.6-3.8
			s-0.6-4.8,0.5-8.3c1.2-3.8,2.6-6.5,4.4-8c1.7-1.5,4.4-2.3,6.7-1.6c2.5,0.8,4.1,3.9,3.4,8.1l-3-0.2c0.5-1.8,0.2-4.7-1.5-5.3
			c-1.4-0.5-3.1,0-4.1,1.1s-2,3.3-3,6.5c-0.9,3-1.2,5.2-0.8,6.6c0.4,1.4,1.1,2.3,2.1,2.6s1.9,0.2,2.7-0.4c0.8-0.6,1.5-1.7,2-3.3
			l0.4-1.4l-3.6-1.2l0.7-2.3l5.9,1.9L94.9,225.4z"/>
		<path d="M125.9,220.3c-0.1,2.1-0.6,3.7-1.7,4.9c-1.1,1.2-2.7,1.7-4.9,1.6c-2.2-0.1-3.8-0.7-4.7-2c-1-1.3-1.4-2.9-1.4-5l0.5-15.9
			l2.8,0.1l-0.5,15.9c0,1.5,0.3,2.6,0.9,3.3c0.6,0.7,1.5,1.1,2.5,1.2c1.1,0,1.9-0.3,2.6-1c0.7-0.7,1-1.8,1.1-3.2l0.5-15.9l2.8,0.1
			L125.9,220.3z"/>
		<polygon points="141.8,224.5 139.3,224.9 131.5,209.8 132.7,226 129.7,226.4 128,203.6 131.4,203.3 137.9,213.9 136.7,202.5 
			139.1,202.1 		"/>
		<polygon points="150.3,222.1 147.4,223 141.3,201.4 144.3,200.5 		"/>
		<polygon points="158.2,194.8 161.9,218.6 159.1,220 146.4,199.8 149.2,198.6 158,212.4 155.5,195.9 		"/>
		<polygon points="181.7,208.3 171,214 159.4,194.1 169.6,188.6 170.9,190.9 163.1,195 166.7,201.2 173.8,197.4 175.1,199.6 
			168,203.4 172.2,210.5 180.4,206.1 		"/>
		<path d="M193.8,199.8l-2.3,2l-8.3-6.8l-2.1,1.9l5.6,7.6l-2.3,2.4l-13.7-19.2l4.4-3.1c1.4-1,3.2-1.7,4.9-1.5
			c4.3,0.5,6.1,3.4,5.9,6.7c-0.1,1.1-0.1,2.1-0.5,3.1L193.8,199.8z M179.1,186.3c-1.7-0.5-3.1,0.9-4.4,1.8l4.5,6c1.4-1,2-1.2,3.1-3
			C182.8,188.9,181.9,187,179.1,186.3"/>
		<path d="M201.2,181.2c4.8,2.9,3.7,11-2.6,11.9c-1.7,0.3-3.7-0.3-4.5-0.8l1.1-2.4c1,0.2,2.1,0.6,3.1,0.4c4.1-0.8,3.9-5,1.5-6.7
			c-0.8-0.6-2-0.7-3-0.6c-2.7,0.3-4.5,2.3-7.5,2.5c-3.3,0.2-5.6-1.8-6.2-5.1c-0.3-1.7,0.1-3.4,1-4.7c1.8-2.8,5.5-3.1,8.2-1.5
			l-1.1,2.5c-1.5-0.8-4.1-0.8-5.1,0.8c-0.5,0.8-0.7,1.6-0.5,2.5c0.3,1.8,1.6,2.9,3.4,2.7c3-0.4,5-2.8,7.9-2.7
			C198.2,180.1,199.8,180.4,201.2,181.2"/>
		<polygon points="211.3,178.3 209.6,180.4 189.9,168.1 191.6,166 		"/>
		<polygon points="201.3,153.4 199.2,157.5 217.7,168.4 216.5,170.7 197.9,159.8 195.7,163.8 193.4,162.4 199,152.1 		"/>
		<polygon points="204.7,138.1 216.1,148.2 223.6,151.5 222.7,154 215.7,151.3 199.6,150.9 200.4,148.3 211.6,148.5 203.6,141.2 		
			"/>
		<path d="M49.6,194.7c-2,2-3.9,3-5.6,3.1c-1.7,0.1-3.3-0.6-4.7-2.1c-1.3-1.3-1.9-2.8-1.9-4.6c0-0.9,0.3-1.8,0.8-2.7l2.6,1.6
			c-0.2,0.4-0.3,0.9-0.3,1.3c0,0.9,0.3,1.7,0.9,2.4c0.9,0.9,1.8,1.3,2.7,1.2s2.1-0.8,3.5-2.1l11.3-11.2l2.1,2.1L49.6,194.7z"/>
		<path d="M88.2,190.8l-7.9-4.9l0.7-1.2l3,1.8l4.7-8.2l-3-1.8l0.6-1.1c1.1,0.7,2,1.1,2.7,1.2c0.7,0.1,1.2-0.2,1.7-0.8l1.7,1
			l-6.3,11.1l2.9,1.8L88.2,190.8z M111.9,185.8c0.1-0.6-0.1-1.2-0.7-1.7c-0.6-0.5-1.4-0.8-2.6-1c-1.1-0.1-2-0.1-2.7,0.2
			c-0.8,0.3-1.2,0.7-1.3,1.4c-0.1,0.5,0,0.9,0.3,1.2c0.3,0.4,0.7,0.7,1.4,1.1c0.3,0.1,0.7,0.4,1.3,0.6c0.6,0.3,1.1,0.5,1.6,0.7
			c0.9-0.3,1.6-0.7,2-1.1C111.5,186.8,111.7,186.4,111.9,185.8 M110.8,192.9c0.1-0.6,0-1.1-0.2-1.5c-0.3-0.4-0.9-0.8-1.8-1.3
			c-0.3-0.2-0.7-0.3-1.2-0.6c-0.5-0.2-1.1-0.5-1.8-0.8c-0.9,0.2-1.6,0.6-2.1,1s-0.9,1-1,1.6c-0.2,0.9,0.1,1.6,0.8,2.3
			s1.6,1.1,2.8,1.3s2.3,0.1,3.1-0.3C110.2,194.3,110.7,193.7,110.8,192.9 M105.9,196.4c-1.1-0.1-2.1-0.4-2.9-0.7
			c-0.8-0.3-1.5-0.7-2.1-1.2c-0.5-0.5-0.9-1-1.1-1.5c-0.2-0.6-0.2-1.1-0.1-1.7c0.2-0.8,0.6-1.4,1.4-2c0.8-0.6,1.8-0.9,3-1.1v-0.1
			c-1-0.6-1.7-1.1-2.1-1.7c-0.4-0.6-0.5-1.2-0.4-1.9c0.2-1.1,1-1.9,2.4-2.4s3-0.7,4.9-0.4c2,0.3,3.5,0.8,4.6,1.7
			c1.1,0.8,1.5,1.8,1.3,2.8c-0.1,0.6-0.5,1.2-1.2,1.8c-0.7,0.5-1.6,0.9-2.8,1.1v0.1c1.2,0.6,2.1,1.2,2.6,1.8s0.7,1.4,0.6,2.3
			c-0.2,1.2-1.1,2.1-2.6,2.7C109.7,196.5,107.9,196.7,105.9,196.4 M133.4,187.7c0-1-0.1-1.8-0.4-2.4c-0.3-0.6-0.6-1.1-1.1-1.4
			c-0.4-0.3-0.8-0.5-1.3-0.6c-0.4-0.1-0.9-0.2-1.4-0.2c-1.2,0-2.1,0.3-2.8,0.8c-0.7,0.6-1.1,1.4-1.1,2.4c0,0.6,0.1,1.1,0.3,1.5
			s0.6,0.7,1.1,1c0.4,0.2,0.8,0.3,1.2,0.4c0.5,0.1,1,0.1,1.5,0.1c0.6,0,1.3-0.1,2-0.2c0.7-0.1,1.3-0.3,1.8-0.6c0-0.1,0-0.2,0-0.4
			C133.4,188.1,133.4,187.9,133.4,187.7 M122.4,186.5c0-0.7,0.2-1.4,0.5-2c0.4-0.6,0.9-1.1,1.5-1.6c0.6-0.4,1.3-0.8,2.2-1
			s1.7-0.4,2.6-0.4c1,0,1.9,0.1,2.7,0.3s1.5,0.5,2.1,1c0.7,0.5,1.3,1.2,1.7,2.1c0.4,0.9,0.6,1.9,0.6,3.2c0,1.2-0.2,2.3-0.6,3.4
			c-0.4,1.1-1,1.9-1.8,2.6c-0.8,0.7-1.8,1.3-3,1.7s-2.6,0.6-4.3,0.6c-0.4,0-0.8,0-1.2,0s-0.8-0.1-1.2-0.2v-1.8h0.1
			c0.2,0.1,0.6,0.2,1.1,0.3s1,0.1,1.5,0.1c1.9,0,3.4-0.4,4.4-1.2c1.1-0.8,1.7-2,1.8-3.5c-0.8,0.3-1.5,0.6-2.2,0.8s-1.4,0.2-2.3,0.2
			c-0.8,0-1.5-0.1-2.2-0.2c-0.7-0.1-1.3-0.3-2-0.7c-0.8-0.4-1.3-0.9-1.7-1.5C122.6,188,122.4,187.3,122.4,186.5 M153.5,174.3
			L153,189l-2.3,1.4l0.2-13.9l-8.6,4.2l-0.8-1.7l10.8-5.6L153.5,174.3z"/>
		<g>
			<path d="M158.2,55.1c-1.7-0.8-0.5-1.1-0.4-2.8c0.1-1.4-0.8-3-0.5-4c0.8-2.7,4.2-1.6,6-0.3c0.3,0.2,0.6,0.9,0.9,1.6
				c0.6,1.6,1.2,3.9-0.6,5C162,55.7,159.7,55.9,158.2,55.1"/>
			<path d="M138.2,47.3c-0.1,0-0.1-0.1-0.2-0.1c0.1-0.2,0.1-0.4,0.2-0.6c0.6-0.1,6.4-2.1,6.4-2.2c1.7-0.8,3.3-1.8,4.2-3.5
				c-3.8,0.3-7.8,2.1-11.6,1.4c-1.6-0.8-2.5-2-3.6-2.9c0-0.1,0-0.1,0-0.2c-1.6-1.7-1.4-3.4,0.9-3.6c3.5,1.7,9.8,0.5,13.6,0
				c0.9-0.2,3.3-0.4,4.1-1c2-4.7,2.7-9.7,4.1-14.3c2-3.1,3.6-0.3,5.2,1.9c0.1,0.3,0.5,0.7,0.7,1.5c0.1,0,0.1,0,0.2,0
				c0.5,1.6,0.6,2.3-1.1,3.3c-1.5,2.1-2.5,4.5-3.1,7.2c2.6,0.3,4.7-1.6,7.7-0.9c0.4,1.5,0,2.7-1.6,3.5c-2.4,0.5-5,0.9-7.7,1.4
				c-1.2,2.3-2.9,5.1-5.1,6.7c-0.3,0.2-1.9,1.1-2.2,1.2c-1.8,0.5-3.5,1.3-5.3,1.4C139.1,47.6,139.1,47.4,138.2,47.3"/>
		</g>
		<g>
			<path d="M80.1,64.3c-2.1-0.1-4.6-1.6-6.1-2.6c0-0.5-0.1-1.1,0-1.6c3-4.8,6-9.4,8.3-14.7c0.5-2.2,1.2-4.7,1.8-7
				c0-0.1,0.1-0.1,0.2-0.2c0-0.1-0.1-0.1-0.1-0.2c0.8-1.3,1.1-1.7,2.6-0.6c0.5,1.1-1.1,3.2-1.3,4.5c0,2.4-0.1,4.9-0.3,7.4
				c-0.2,0.5-0.2,0.5-0.7,3.3c-0.8,1.3-1.4,4.2-1.5,5.9c-1,1.3-0.7,3.9-2,5.3C80.7,63.9,80.4,64.1,80.1,64.3"/>
			<path d="M99.2,39.6c-2.6,0.9-4-0.5-6.1-1.4c-0.3-0.7-0.1-1.3-0.2-1.7c0.6-0.4,0.6-0.4,0.9-0.8c1-0.6,1.5-0.7,2.6-1.2
				c1.4-0.9,4.2-5.1,5.9-4.5C103.8,33.1,101.6,37.6,99.2,39.6"/>
			<path d="M77.2,42.5c-1.3-0.5-3.1-4.4-3.7-5.7c-0.2-2.5,2.1-3.5,4.5-2.8c2.3,1.4,3.6,1.8,3,4.7C79.9,41,79.1,41.4,77.2,42.5"/>
			<path d="M95.7,33c-0.8-1.1-0.1-4.4-0.8-4.8c-0.6,0.3-1.2,0.8-1.8,1.1c-1.9-0.1-4.3-1.4-4.3-3.1c0.6-1.8,0.3-1.3,2.1-2.1
				c1.4-1.4,2.9-2.9,4.3-4.3c2.7-1.7,4.7-0.6,6,2.2c0.2,2.1-0.4,4-1.1,5.9c-1.2,1.5-2.3,2.9-3.3,4.4C96.4,32.5,96.1,32.8,95.7,33"/>
			<path d="M76.5,31c-0.8-0.3-0.7-0.7-0.6-1.4c-0.6-1.2-1.7-1.9-2.2-3c-0.4-2.3-1.2-2.9,0.2-4.6c1.6,0.1,7.3,0.6,7.2,3.7
				C80.5,27.9,78.3,30,76.5,31"/>
		</g>
		<path d="M47.2,109.6c-2.5,1.7-8.4,0.6-7.6-3c-0.3-0.3-0.5-1-0.4-1.4c-0.1-0.1-0.1-0.1-0.2-0.1c-0.6-3.7-2.6-7.3-3.7-10.8
			c-0.6-1.1-1.3-2-0.8-3.2c0.8-0.2,1.7,0.7,2.4,1.4c0.4-0.1,0.8-1,0.9-1.6c-0.3-2.5-0.1-5.3-0.4-7.8c-0.6-0.5-1.3-1.1-1.9-1.7
			c-0.5,1.3-2.1,5.4-3.5,3.2c0.4-1.7,0.6-4.5-0.3-6.2c-1.2-1.3-3-2.3-3.5-3.7c0.3-2,3.4-2.5,5.2-1.7c1.5,0.1,1.5-2.6,3.1,1.9
			c0,0.8,0.8,1.2,1.6,1.6c0.1-0.2,0.3-0.3,0.4-0.5c0-2-0.1-4.1,0.1-6.2c-1.8-1.8-3.4-3.4-4.4-5.6c0-2.1,2.4-3.4,4.5-4
			c0.7-1.1,0.7-2.1,0.7-3.6c0.1-0.5,0.1-0.5,0.6-1.2c0.7,0.1,1.3,0.3,2.1,0.8c1.7,2.2-1.8,8.8,1.5,9.3c0.7-1.1-0.3-2.3-0.8-3.2
			c0.2-1.6,2.7-3.7,4.5-4.3c2.7-0.2,2.5,1.3,2.5,3.5c0.1,0.3,0.2,0.6,0.4,0.9c3.4,2.5,3.4,2.5,8,5.6c0.9,1.4,1.2,2.2,1.6,3.9
			c0.1,0,0.1,0.1,0.2,0.1c0,0.1-0.1,0.1-0.1,0.2c0.6,1.3,0.7,3.5-0.9,3.7c-3.8-2.6-7.6-5.5-11.4-7.9c0,0.1-0.1,0.2-0.1,0.2
			c1.7,1.6,3.9,5.8,3.9,8.2c-0.9,1.5-2.6,2.2-4.1,1.7c-0.3-0.4-0.2-0.8-0.2-1.2c-1.1-2-4.4-3.9-6.1-5c-0.6,1.3,0.7,5.2,1.1,6.8
			c0.1,0.9,0.1,1.9,0.2,2.8c1.1,1.4,2.3,2.7,3.6,4.1c0.5,0.8,0.9,1.6,1.4,2.4c0,0.1-0.1,0.1-0.1,0.2c0.5,1.2,1.8,4.7-0.5,4.7
			c-0.2-0.1-0.4-0.3-0.6-0.4c-0.7-1.8-2.1-3.8-3.6-4.8c-0.5,1.8,0.1,3.7-0.8,5.2c-0.7,0.7-1.6,1.4-2.3,1.8c-0.1,0-0.1-0.1-0.2-0.1
			c-0.5,0.2-1,0.3-1.1,0.6c0.6,0.8,1.3,1.7,2,2.5c2.1,3.7,4.5,6.9,7.2,10.3C47.5,108.7,47.4,108.9,47.2,109.6"/>
		<path d="M31,94.3c-1,0-1.5-1.1-2.2-1.7c-2.7-0.8-4.6-1.3-5.5-3.9c0.1-0.2,0.2-0.5,0.4-0.7c1.4-0.5,4-0.8,5.7-0.9
			C32.6,87.8,31.5,91.9,31,94.3"/>
		<path d="M24,86.5c-0.6,0.4-0.7,0.3-0.9,0.3c-0.4-0.6-0.5-1.1-1.1-1.3c-2.9-0.1-6-2.3-5.4-5.3c0.5-0.6,1.1-0.2,2.2,0.1
			c2.5-0.5,6.2-2,6.3,1.9C24.9,83.6,24.4,85.1,24,86.5"/>
		<path d="M175.3,90.2h-29c-8.5,0-12.8,8.3-16,15.8l-4.9-11l8.2-3c-4.8-4.5-19.8-7-21.8-0.2l-3.5,14.2c-2.8-6.4-6.7-15.8-15.6-15.8
			H63.3c3.8,6.8,7.5,9.2,21,8.6l1.8,4.7l-14.8,0.1c4.4,8.1,6.9,8.4,18.9,8.1l2.5,5.6L81,117.7c2.5,5.7,5.1,8.2,15.2,7.7l2,5
			l-9.3,0.1c3.5,5.8,5.2,8.4,12.6,7.7l2,5.4h-6.4c2.8,6.2,6,6.5,10,7.1c3.6,0.5,4.1,7.2-0.1,9.3l12.5,20.3L132,160
			c-4.2-2.1-3.6-8.8-0.1-9.3c4-0.6,7.2-0.9,10-7.1h-6.4l2-5.4c7.4,0.6,9.1-2,12.6-7.7l-9.3-0.1l1.9-5c10,0.5,12.7-2,15.2-7.7
			l-11.7-0.4l2.5-5.6c11.9,0.3,14.5,0,18.9-8.1l-14.8-0.1l1.8-4.7C167.8,99.4,171.5,97,175.3,90.2"/>
		<path d="M219.5,76.3l0.1-0.3c0.4-1,0.4-1.5,0.3-1.6c-0.1-0.2-0.6-0.4-1.3-0.6c-0.2,0-0.4-0.1-0.7-0.1l-0.4-0.1l-0.1-0.3
			c-0.1-0.1-0.3-0.3-0.5-0.4l-0.6-0.2l-0.1-0.1l0.7-0.5c0.5-0.4,1.1-0.6,1.7-0.8l0.1-0.2l0.3,0.1c1-0.9,1.7-2.2,1.8-3.5
			c-0.3-0.4-0.8-0.6-1.6-0.6c-1,0-2.3,0.4-3.4,0.7c-0.7,0.2-1.5,0.5-2.3,0.6l-0.3-0.1c-1.9-0.9-1.9-0.9-5.8-3
			c-0.3,0.2-0.5,0.5-0.6,0.8c-0.2,0.6-0.2,1.2,0.1,1.8l0.4,0.3l0,0l0,0l-0.9,0.5c-0.2,0.1-0.3,0.1-0.2,0.1l0,0l-0.3,0.2
			c0,0.1,0.1,0.3,0.2,0.5l0.1,0.4c0,0.4-0.1,0.5-0.4,0.8l-0.1,0.4v0.1l0,0l-0.6-0.4c-0.7-0.6-0.8-0.6-1.4-1.2c-0.1,0-0.3,0-0.5,0
			c-0.4,0-0.8,0.1-0.9,0.4c-0.2,0.2-0.1,0.5,0,0.9l-0.1,0.2c-0.1,0.6-0.6,1.5-2.3,1.5H199c-0.2,0-0.3,0-0.6,0.1
			c0,1.2,0.5,1.3,1.7,1.5c0.5,0.1,1,0.2,1.6,0.3c0.1,0,0.2-0.1,0.3-0.1c0.3,0,0.5,0.1,0.7,0.2l0.9,0.4l0.3,0.1l0.2,0.1l-1.1,0.6
			c-0.4,0.2-0.7,0.4-1.1,0.8c-0.1,0.3-0.2,0.6-0.5,0.9v0.3l-0.5-0.1c-0.8-0.2-1.7-0.4-2.5-0.6l-1.3-0.3c-2.3-0.6-5.1-1.3-7.8-1.8
			c-0.6-0.2-1.2-0.3-1.9-0.5l-1.3-0.1l-0.1,0.4c0.3,0.2,0.7,0.5,1.4,1l0.1,0.2c0.4,0.9,1,2,2.3,2.7c0.9,0.2,1.9,0.3,3,0.4
			c3.3,0.4,6.7,0.8,9.4,2.8l0.7,0.4h0.2l0,0l0,0l-1,0.5c-0.2,0.1-0.5,0.3-0.8,0.5l-0.3-0.1c-3.2-0.7-3.2-0.7-4.4-1.1
			c-1.2-0.7-1.7-1-2.3-1c-0.5,0-1,0.2-1.9,0.7c-0.1,0-0.1,0-0.1,0.1l0,0c0,0-0.1,0-0.1,0.1l-0.3-0.1c-0.4-0.1-0.4-0.1-1.3-0.3
			c-0.9-0.3-1.8-0.6-2.8-0.9c-2.8-0.9-5.6-1.8-8-3.4c-0.7-0.6-1.2-1.1-1.6-1.6c-0.1-0.1-0.2-0.2-0.3-0.2l0,0l-0.2-0.3
			c-0.2,0.1-0.5,0.3-0.9,0.8c-0.5,1.6,0.9,5.3,2.2,6.4c0.9,0.4,1.8,0.6,2.9,0.8c1.7,0.3,3.4,0.6,5.1,2l0.4,0.1l0,0l0,0l-0.4,0.6
			c-0.5,0.7-1.2,1.3-1.9,2l-0.3,0.3c-0.2,0.2-0.4,0.3-0.6,0.5h-0.3c-0.2,0-0.4,0.1-0.7,0.1c-1.2,0-2.3-0.6-3.2-1.1
			c-0.3-0.2-0.6-0.3-1-0.4l-0.2,0.3c1.3,2.2,3,4.2,5.4,6.2l0.2,0.3c0.3,0.2,0.6,0.2,0.9,0.2l0,0c1.7,0,3.5-2.3,4.8-4
			c0.3-0.4,0.6-0.7,0.9-1l0.3-0.2c1.3-0.9,1.4-1,1.3-1l0.3,0.1c1.1,0.3,1.8,0.7,2.8,1.3c1-0.4,2-1.4,1.9-2.5l-0.4-0.4
			c-0.6-0.6-1.2-1.1-1.8-1.7l-0.3-0.1l0.2-0.5c0.2-0.5,0.5-0.9,1-1.3v-0.2l0.4,0.1c1.8,0.4,3.4,0.9,5.4,1.5l1.7,0.6l0.4,0.3
			c1,0.7,1.7,1.3,2.8,1.3c0.2,0,0.3,0,0.6-0.1c1.1-1.1,1.7-1.8,2.1-2.7l0,0c0,0,0,0,0-0.1c-0.3-0.5-0.5-0.6-0.5-0.6l0.3-0.4
			c0.1-0.1,0.2-0.2,0.5-0.4c2.9-0.9,6.1-2.1,8.4-2.9c1.4-0.9,1.5-1,1-2.3C219.8,76.9,219.6,76.7,219.5,76.3 M208.1,78.1l0.5-0.4
			c0.6-0.6,0.9-0.9,1-1.2c0-0.1-0.2-0.3-0.5-0.5H209c-0.1,0-0.2,0-0.3,0c-0.5,0-0.8-0.2-1-0.5l-0.2-0.2v-0.2l0.2-0.6h-0.1l0.6-0.2
			c2.1-0.7,2.1-0.7,2.5-0.9l0.2-0.3l0.4,0.3c0.4,0.4,1.9,1.7,2.2,3.5l-0.2,0.2c-1.1,1.4-2.7,1.6-4.2,1.6l-0.4,0.1l-0.2-0.6
			L208.1,78.1L208.1,78.1z"/>
		<path d="M195.7,72.9c-0.6,0-1.3-0.2-1.8-0.6c-0.4-1.4,0.7-2.9,1.4-4c0.3-0.4,0.5-0.7,0.6-0.9l0.1-0.3l0.3-0.5
			c0.3-0.6,0.6-1.2,0.9-1.8c0.1-0.3,0.2-0.7,0.3-1c0.5-1.8,0.8-2.9,1.7-3.3c0.7,0.1,1.1,0.2,1.2,0.5c0.2,0.3,0.1,0.6,0,1.3l-0.1,0.3
			c0.1,0.2,0.1,0.5,0.2,0.9c0.2,1.1,0.3,2.2,0.1,3.2l-0.1,0.4c-0.1,0.4-0.2,0.7-0.3,1.1c-0.4,1.3-0.9,2.7-1.8,3.6l-0.4,0.4l-0.3,0.2
			C197.2,72.7,196.5,72.9,195.7,72.9L195.7,72.9z"/>
		<path d="M195.7,72.9L195.7,72.9c0.7,0,1.4-0.2,2-0.6l0.2-0.1l0.4-0.4c0.9-0.8,1.4-2.3,1.8-3.6c0.1-0.3,0.2-0.7,0.3-1.1l0.1-0.4
			c0.1-1.1,0-2.2-0.1-3.2c0-0.3-0.1-0.6-0.1-0.9l0,0l0.1-0.2c0.1-0.6,0.2-1,0-1.3c-0.2-0.2-0.5-0.3-1.2-0.5
			c-0.9,0.3-1.2,1.4-1.6,3.1c-0.1,0.4-0.2,0.7-0.3,1.1c-0.3,0.7-0.6,1.2-0.9,1.8l-0.3,0.5l-0.1,0.3c-0.1,0.3-0.3,0.5-0.6,0.9
			c-0.7,1.1-1.8,2.6-1.5,3.9C194.5,72.7,195.1,72.9,195.7,72.9"/>
		<path d="M189.3,71.3c-0.3,0-0.7-0.2-1.5-0.6c-1-2.2,2.5-4.7,2.9-5c0.6,0.1,0.9,0.4,1.1,1c0.4,1.1,0.1,2.7-0.6,3.6
			C190.2,71,189.8,71.3,189.3,71.3L189.3,71.3z"/>
		<path d="M189.3,71.2L189.3,71.2c0.4,0,0.8-0.3,1.9-1c0.7-0.9,1-2.5,0.6-3.5c-0.2-0.5-0.5-0.8-1-1c-0.4,0.3-3.9,2.8-2.9,4.9
			C188.6,71.1,189,71.2,189.3,71.2"/>
	</g>
</g>
</svg>
